HIERARCHY
ROOT hip
{
  OFFSET 0 0 0
  CHANNELS 6 Xposition Yposition Zposition Zrotation Yrotation Xrotation
  JOINT abdomen
  {
    OFFSET 0 20.6881 -0.73152
    CHANNELS 3 Zrotation Xrotation Yrotation
    JOINT chest
    {
      OFFSET 0 11.7043 -0.48768
      CHANNELS 3 Zrotation Xrotation Yrotation
      JOINT neck
      {
        OFFSET 0 22.1894 -2.19456
        CHANNELS 3 Zrotation Xrotation Yrotation
        JOINT head
        {
          OFFSET -0.24384 7.07133 1.2192
          CHANNELS 3 Zrotation Xrotation Yrotation
          JOINT leftEye
          {
            OFFSET 4.14528 8.04674 8.04672
            CHANNELS 3 Zrotation Xrotation Yrotation
            End Site
            {
              OFFSET 1 0 0
            }
          }
          JOINT rightEye
          {
            OFFSET -3.6576 8.04674 8.04672
            CHANNELS 3 Zrotation Xrotation Yrotation
            End Site
            {
              OFFSET 1 0 0
            }
          }
        }
      }
      JOINT rCollar
      {
        OFFSET -2.68224 19.2634 -4.8768
        CHANNELS 3 Zrotation Xrotation Yrotation
        JOINT rShldr
        {
          OFFSET -8.77824 -1.95073 1.46304
          CHANNELS 3 Zrotation Xrotation Yrotation
          JOINT rForeArm
          {
            OFFSET -28.1742 -1.7115 0.48768
            CHANNELS 3 Zrotation Xrotation Yrotation
            JOINT rHand
            {
              OFFSET -22.5879 0.773209 7.07136
              CHANNELS 3 Zrotation Xrotation Yrotation
              JOINT rThumb1
              {
                OFFSET -1.2192 -0.487915 3.41376
                CHANNELS 3 Zrotation Xrotation Yrotation
                JOINT rThumb2
                {
                  OFFSET -3.37035 -0.52449 3.41376
                  CHANNELS 3 Zrotation Xrotation Yrotation
                  End Site
                  {
                    OFFSET -1.78271 -1.18214 1.43049
                  }
                }
              }
              JOINT rIndex1
              {
                OFFSET -7.75947 0.938293 5.60832
                CHANNELS 3 Zrotation Xrotation Yrotation
                JOINT rIndex2
                {
                  OFFSET -2.54057 -0.884171 1.56538
                  CHANNELS 3 Zrotation Xrotation Yrotation
                  End Site
                  {
                    OFFSET -1.62519 -0.234802 1.16502
                  }
                }
              }
              JOINT rMid1
              {
                OFFSET -8.24714 1.18213 3.41376
                CHANNELS 3 Zrotation Xrotation Yrotation
                JOINT rMid2
                {
                  OFFSET -3.10165 -0.590103 1.0647
                  CHANNELS 3 Zrotation Xrotation Yrotation
                  End Site
                  {
                    OFFSET -2.48547 -0.328903 0.83742
                  }
                }
              }
              JOINT rRing1
              {
                OFFSET -8.82822 0.546677 1.51678
                CHANNELS 3 Zrotation Xrotation Yrotation
                JOINT rRing2
                {
                  OFFSET -2.60934 -0.819778 -0.0198488
                  CHANNELS 3 Zrotation Xrotation Yrotation
                  End Site
                  {
                    OFFSET -2.33842 -0.294052 0.168128
                  }
                }
              }
              JOINT rPinky1
              {
                OFFSET -8.27202 -0.0477905 -0.4584
                CHANNELS 3 Zrotation Xrotation Yrotation
                JOINT rPinky2
                {
                  OFFSET -1.82734 -0.647385 -0.700984
                  CHANNELS 3 Zrotation Xrotation Yrotation
                  End Site
                  {
                    OFFSET -1.69225 -0.51767 -0.607171
                  }
                }
              }
            }
          }
        }
      }
      JOINT lCollar
      {
        OFFSET 2.68224 19.2634 -4.8768
        CHANNELS 3 Zrotation Xrotation Yrotation
        JOINT lShldr
        {
          OFFSET 8.77824 -1.95073 1.46304
          CHANNELS 3 Zrotation Xrotation Yrotation
          JOINT lForeArm
          {
            OFFSET 28.1742 -1.7115 0.48768
            CHANNELS 3 Zrotation Xrotation Yrotation
            JOINT lHand
            {
              OFFSET 22.5879 0.773209 7.07136
              CHANNELS 3 Zrotation Xrotation Yrotation
              JOINT lThumb1
              {
                OFFSET 1.2192 -0.487915 3.41376
                CHANNELS 3 Zrotation Xrotation Yrotation
                JOINT lThumb2
                {
                  OFFSET 3.37035 -0.52449 3.41376
                  CHANNELS 3 Zrotation Xrotation Yrotation
                  End Site
                  {
                    OFFSET 1.78271 -1.18214 1.43049
                  }
                }
              }
              JOINT lIndex1
              {
                OFFSET 7.75947 0.938293 5.60832
                CHANNELS 3 Zrotation Xrotation Yrotation
                JOINT lIndex2
                {
                  OFFSET 2.54057 -0.884171 1.56538
                  CHANNELS 3 Zrotation Xrotation Yrotation
                  End Site
                  {
                    OFFSET 1.62519 -0.234802 1.16502
                  }
                }
              }
              JOINT lMid1
              {
                OFFSET 8.24714 1.18213 3.41376
                CHANNELS 3 Zrotation Xrotation Yrotation
                JOINT lMid2
                {
                  OFFSET 3.10165 -0.590103 1.0647
                  CHANNELS 3 Zrotation Xrotation Yrotation
                  End Site
                  {
                    OFFSET 2.48547 -0.328903 0.83742
                  }
                }
              }
              JOINT lRing1
              {
                OFFSET 8.82822 0.546677 1.51678
                CHANNELS 3 Zrotation Xrotation Yrotation
                JOINT lRing2
                {
                  OFFSET 2.60934 -0.819778 -0.0198488
                  CHANNELS 3 Zrotation Xrotation Yrotation
                  End Site
                  {
                    OFFSET 2.33842 -0.294052 0.168128
                  }
                }
              }
              JOINT lPinky1
              {
                OFFSET 8.27202 -0.0477905 -0.4584
                CHANNELS 3 Zrotation Xrotation Yrotation
                JOINT lPinky2
                {
                  OFFSET 1.82734 -0.647385 -0.700984
                  CHANNELS 3 Zrotation Xrotation Yrotation
                  End Site
                  {
                    OFFSET 1.69225 -0.51767 -0.607171
                  }
                }
              }
            }
          }
        }
      }
    }
  }
  JOINT rButtock
  {
    OFFSET -8.77824 4.35084 1.2192
    CHANNELS 3 Zrotation Xrotation Yrotation
    JOINT rThigh
    {
      OFFSET 0 -1.70687 -2.19456
      CHANNELS 3 Zrotation Xrotation Yrotation
      JOINT rShin
      {
        OFFSET 0 -36.8199 0.73152
        CHANNELS 3 Zrotation Xrotation Yrotation
        JOINT rFoot
        {
          OFFSET 0.73152 -45.1104 -5.12064
          CHANNELS 3 Zrotation Xrotation Yrotation
          End Site
          {
            OFFSET -1.1221 -3.69964 12.103
          }
        }
      }
    }
  }
  JOINT lButtock
  {
    OFFSET 8.77824 4.35084 1.2192
    CHANNELS 3 Zrotation Xrotation Yrotation
    JOINT lThigh
    {
      OFFSET 0 -1.70687 -2.19456
      CHANNELS 3 Zrotation Xrotation Yrotation
      JOINT lShin
      {
        OFFSET 0 -36.8199 0.73152
        CHANNELS 3 Zrotation Xrotation Yrotation
        JOINT lFoot
        {
          OFFSET -0.73152 -45.1104 -5.12064
          CHANNELS 3 Zrotation Xrotation Yrotation
          End Site
          {
            OFFSET 1.1221 -3.69964 12.103
          }
        }
      }
    }
  }
}
MOTION
Frames:	6
Frame Time:	0.00833333
31.0682 85.6228 1.79146 0.0 0.0 0.0 2.93082 0.00146922 0.079127 0.807952 0.0160281 0.139788 -4.32541e-14 7.95139e-16 1.09332e-15 -1.2934e-13 3.18055e-15 3.52843e-15 -0.0 0.0 0.0 -0.0 0.0 0.0 -2.15692e-14 1.62677e-16 6.4605e-16 -4.51463e-13 3.36692e-15 1.25234e-14 -7.81184e-12 2.44565e-12 3.02153e-13 -8.93494e-11 -1.7006e-12 2.40132e-12 -2.10765e-10 1.61479e-12 5.89675e-12 -3.63986e-10 2.78935e-12 1.01595e-11 -2.10758e-10 1.61612e-12 5.89039e-12 7.73091 5.47488 0.417314 -2.10764e-10 1.61503e-12 5.89039e-12 2.90554 0.965183 0.102902 -2.10756e-10 1.61532e-12 5.88164e-12 10.2786 0.731801 0.0259123 -2.10766e-10 1.61771e-12 5.88085e-12 2.22167 -0.733487 -0.20892 -2.15684e-14 1.60348e-16 5.46658e-16 -4.56857e-13 3.35449e-15 9.74045e-15 -7.80742e-12 -2.21208e-12 3.21236e-13 -8.93322e-11 2.95712e-12 2.37269e-12 -2.10723e-10 1.61468e-12 5.8713e-12 -3.63903e-10 2.78935e-12 1.01643e-11 -2.10733e-10 1.61731e-12 5.88085e-12 -7.73091 5.47488 -0.417314 -2.10725e-10 1.61542e-12 5.8713e-12 -2.90554 0.965183 -0.102902 -2.10734e-10 1.61473e-12 5.87687e-12 -10.2786 0.731801 -0.0259123 -2.10726e-10 1.61453e-12 5.87767e-12 -2.22167 -0.733487 0.20892 -2.03217e-16 0.0 -3.88251e-19 2.69417 -8.9952 -0.298796 0.00819348 10.7114 0.212016 -0.527404 -1.72851 0.0239225 2.03217e-16 0.0 3.88251e-19 1.76 -1.93355 -0.0120222 0.00859211 -2.07865 0.07057 0.465216 3.99976 -0.133421
29.1748 84.474 -1.53387 83.4977 -88.3717 -72.8529 1.87307 -1.51615 -0.559565 1.69426 -0.568114 -0.0353834 -1.1679 4.10473 -1.58849 -0.460541 -1.77718 -3.45713 -0.0 0.0 0.0 -0.0 0.0 0.0 -1.9334e-14 1.65547e-13 -3.96016e-15 22.78 8.31729 -3.93819 -5.95258 -3.17092 8.73522 0.000575292 0.532041 0.0747619 2.35544e-10 -2.40313e-10 -5.97745e-10 4.04746e-10 -4.13684e-10 -1.03689e-09 2.35549e-10 -2.40312e-10 -5.97751e-10 7.73091 5.47488 0.417314 2.35545e-10 -2.40313e-10 -5.9775e-10 2.90554 0.965183 0.102902 2.35552e-10 -2.40312e-10 -5.97756e-10 10.2786 0.731801 0.0259123 2.35542e-10 -2.40311e-10 -5.97753e-10 2.22167 -0.733487 -0.20892 -1.93262e-14 1.65549e-13 -4.14342e-15 -23.7863 3.98567 3.70715 6.18637 -3.35747 -8.99535 -0.0175524 2.93965 -0.411179 -1.5315e-10 -6.37223e-11 6.54955e-10 -2.58729e-10 -1.09693e-10 1.13453e-09 -1.53157e-10 -6.37194e-11 6.54965e-10 -7.73091 5.47488 -0.417314 -1.5315e-10 -6.37207e-11 6.54955e-10 -2.90554 0.965183 -0.102902 -1.53158e-10 -6.37219e-11 6.5496e-10 -10.2786 0.731801 -0.0259123 -1.53151e-10 -6.37208e-11 6.54958e-10 -2.22167 -0.733487 0.20892 -2.03217e-16 0.0 -3.88251e-19 1.44037 -13.0012 4.86487 0.0266636 14.9785 0.273924 -1.2914 -5.31062 -5.76341 2.03217e-16 0.0 3.88251e-19 2.86088 -6.07637 -7.23755 0.0254369 2.95324 -0.0169647 1.01562 2.55667 7.46776
29.1899 84.4696 -1.59895 79.8894 -88.4471 -69.1754 0.71729 -3.12717 -1.23002 2.62289 -1.18765 -0.218805 -2.14869 8.4401 -3.30041 -1.18114 -3.64521 -7.13371 -0.0 0.0 0.0 -0.0 0.0 0.0 -1.71472e-14 3.47672e-13 -9.0447e-15 48.1637 16.9612 -8.39049 -11.2058 -6.27713 18.0537 -0.000326564 1.09454 0.153826 7.2851e-10 -5.11324e-10 -1.27298e-09 1.25381e-09 -8.80238e-10 -2.20811e-09 7.28514e-10 -5.11323e-10 -1.27299e-09 7.73091 5.47488 0.417314 7.2851e-10 -5.11324e-10 -1.27298e-09 2.90554 0.965183 0.102902 7.28518e-10 -5.11324e-10 -1.27299e-09 10.2786 0.731801 0.0259123 7.28506e-10 -5.11323e-10 -1.27298e-09 2.22167 -0.733487 -0.20892 -1.71319e-14 3.47679e-13 -9.31803e-15 -49.4904 8.16155 7.68584 11.5863 -6.62408 -18.5919 0.00999155 6.04313 -0.848955 -9.01701e-11 -1.39441e-10 1.37916e-09 -1.43542e-10 -2.40081e-10 2.38901e-09 -9.01735e-11 -1.39437e-10 1.37917e-09 -7.73091 5.47488 -0.417314 -9.01693e-11 -1.39438e-10 1.37916e-09 -2.90554 0.965183 -0.102902 -9.01755e-11 -1.3944e-10 1.37916e-09 -10.2786 0.731801 -0.0259123 -9.01691e-11 -1.39437e-10 1.37916e-09 -2.22167 -0.733487 0.20892 -2.03217e-16 0.0 -3.88251e-19 0.929637 -17.0494 10.5363 0.0354557 19.4878 0.343682 -2.88901 -8.9556 -11.9799 2.03217e-16 0.0 3.88251e-19 2.88187 -10.1947 -15.0374 0.0601324 8.27242 -0.11061 2.01011 1.03644 15.4969
29.2009 84.4683 -1.64051 78.6326 -88.4026 -67.8642 -0.344177 -4.54928 -1.84217 3.45616 -1.73636 -0.385898 -2.80818 12.2759 -4.86474 -2.02341 -5.25383 -10.4106 -0.0 0.0 0.0 -0.0 0.0 0.0 -1.48636e-14 4.96317e-13 -1.31726e-14 72.0284 24.4569 -12.8613 -15.0423 -8.62998 26.4881 -0.00244086 1.59611 0.224363 1.12816e-09 -7.24169e-10 -1.80503e-09 1.94221e-09 -1.24663e-09 -3.131e-09 1.12817e-09 -7.24168e-10 -1.80503e-09 7.73091 5.47488 0.417314 1.12816e-09 -7.24168e-10 -1.80503e-09 2.90554 0.965183 0.102902 1.12817e-09 -7.24168e-10 -1.80503e-09 10.2786 0.731801 0.0259123 1.12816e-09 -7.24168e-10 -1.80502e-09 2.22167 -0.733487 -0.20892 -1.48418e-14 4.96328e-13 -1.35236e-14 -72.9234 11.7548 11.3353 15.4936 -9.08101 -27.3096 0.0751982 8.81713 -1.24665 -3.80028e-11 -1.94396e-10 1.95312e-09 -4.83806e-11 -3.34657e-10 3.38327e-09 -3.80036e-11 -1.94393e-10 1.95313e-09 -7.73091 5.47488 -0.417314 -3.80011e-11 -1.94393e-10 1.95312e-09 -2.90554 0.965183 -0.102902 -3.80058e-11 -1.94395e-10 1.95312e-09 -10.2786 0.731801 -0.0259123 -3.80004e-11 -1.94392e-10 1.95312e-09 -2.22167 -0.733487 0.20892 -2.03217e-16 0.0 -3.88251e-19 1.19576 -20.4146 15.8275 0.033071 23.5126 0.411361 -4.9936 -11.9811 -17.6605 2.03217e-16 0.0 3.88251e-19 1.93927 -13.4718 -22.2081 0.105981 13.017 -0.196934 3.24173 -0.243657 22.6473
29.2358 84.4681 -1.68115 77.3917 -88.3108 -66.5915 -1.09872 -5.50109 -2.30355 4.05846 -2.10803 -0.511998 -3.16555 14.8998 -5.96412 -2.70829 -6.29014 -12.6496 -0.0 0.0 0.0 -0.0 0.0 0.0 -1.23378e-14 5.61262e-13 -1.49089e-14 89.4067 29.5529 -16.3896 -17.2882 -9.94133 32.4423 -0.00464375 1.94537 0.273511 1.29453e-09 -7.91596e-10 -1.97911e-09 2.22893e-09 -1.36262e-09 -3.43303e-09 1.29453e-09 -7.91595e-10 -1.97912e-09 7.73091 5.47488 0.417314 1.29453e-09 -7.91595e-10 -1.97911e-09 2.90554 0.965183 0.102902 1.29454e-09 -7.91595e-10 -1.97911e-09 10.2786 0.731801 0.0259123 1.29453e-09 -7.91595e-10 -1.9791e-09 2.22167 -0.733487 -0.20892 -1.23124e-14 5.61275e-13 -1.53064e-14 -89.5558 14.0863 13.9532 17.778 -10.45 -33.5241 0.144388 10.7692 -1.53177 -1.28669e-11 -1.97446e-10 2.15149e-09 -3.27995e-12 -3.39699e-10 3.72698e-09 -1.28665e-11 -1.97443e-10 2.1515e-09 -7.73091 5.47488 -0.417314 -1.28648e-11 -1.97442e-10 2.15149e-09 -2.90554 0.965183 -0.102902 -1.28685e-11 -1.97445e-10 2.15149e-09 -10.2786 0.731801 -0.0259123 -1.2864e-11 -1.9744e-10 2.15148e-09 -2.22167 -0.733487 0.20892 -2.03217e-16 0.0 -3.88251e-19 1.78797 -22.596 19.6472 0.0249713 26.3264 0.463034 -6.83262 -13.916 -21.7103 2.03217e-16 0.0 3.88251e-19 0.776098 -15.4703 -27.3395 0.146347 16.3249 -0.259496 4.27575 -1.05902 27.6016
29.29 84.4676 -1.7142 74.4802 -88.2413 -63.6448 -1.3896 -5.79217 -2.56467 4.35472 -2.22279 -0.584756 -3.35241 15.8431 -6.33847 -2.96617 -6.57647 -13.3975 -0.0 0.0 0.0 -0.0 0.0 0.0 -1.17113e-14 5.35103e-13 -1.23848e-14 96.2719 31.6779 -17.8166 -18.0735 -10.3592 34.7695 -0.00574301 2.094 0.294433 1.0764e-09 -6.11434e-10 -1.52256e-09 1.85371e-09 -1.05231e-09 -2.64138e-09 1.07641e-09 -6.11434e-10 -1.52256e-09 7.73091 5.47488 0.417314 1.07641e-09 -6.11435e-10 -1.52256e-09 2.90554 0.965183 0.102902 1.07641e-09 -6.11434e-10 -1.52256e-09 10.2786 0.731801 0.0259123 1.0764e-09 -6.11434e-10 -1.52255e-09 2.22167 -0.733487 -0.20892 -1.16825e-14 5.35116e-13 -1.27832e-14 -96.1711 14.7862 14.9612 18.6188 -10.9291 -36.0727 0.178211 11.5761 -1.65113 -3.3051e-11 -1.00226e-10 1.7103e-09 -4.22446e-11 -1.71817e-10 2.96288e-09 -3.30521e-11 -1.00225e-10 1.71031e-09 -7.73091 5.47488 -0.417314 -3.30496e-11 -1.00225e-10 1.71031e-09 -2.90554 0.965183 -0.102902 -3.30527e-11 -1.00228e-10 1.71031e-09 -10.2786 0.731801 -0.0259123 -3.30487e-11 -1.00222e-10 1.7103e-09 -2.22167 -0.733487 0.20892 -2.03217e-16 0.0 -3.88251e-19 2.1146 -23.4587 21.1246 0.0199985 27.4445 0.486054 -7.63569 -14.6398 -23.3023 2.03217e-16 0.0 3.88251e-19 0.22816 -16.2434 -29.3604 0.163198 17.6227 -0.284331 4.70621 -1.35885 29.4653
